<?xml version="1.0" standalone="no"?>
<!DOCTYPE svg PUBLIC "-//W3C//DTD SVG 20010904//EN"
 "http://www.w3.org/TR/2001/REC-SVG-20010904/DTD/svg10.dtd">
<svg version="1.0" xmlns="http://www.w3.org/2000/svg"
 width="512.000000pt" height="512.000000pt" viewBox="0 0 512.000000 512.000000"
 preserveAspectRatio="xMidYMid meet">

<g transform="translate(0.000000,512.000000) scale(0.100000,-0.100000)"
fill="#000000" stroke="none">
<path d="M3091 4913 c-38 -37 -2048 -2645 -2063 -2678 -15 -33 2 -72 38 -85
15 -6 282 -10 695 -10 368 0 669 -2 669 -5 0 -3 -117 -427 -261 -943 -203
-728 -259 -943 -252 -962 12 -36 55 -57 86 -43 24 11 2066 2649 2089 2698 15
33 -2 72 -38 85 -15 6 -282 10 -695 10 -368 0 -669 2 -669 5 0 3 117 426 260
940 143 513 260 941 260 950 0 23 -45 65 -69 65 -12 0 -34 -12 -50 -27z m-342
-1184 c-121 -437 -221 -806 -222 -821 0 -15 8 -37 18 -48 18 -20 29 -20 677
-20 376 0 658 -4 656 -9 -5 -14 -1723 -2239 -1726 -2236 -2 1 97 360 219 796
122 437 221 806 222 821 0 15 -8 37 -18 48 -18 20 -29 20 -677 20 -376 0 -658
4 -656 9 5 14 1723 2239 1726 2236 2 -2 -97 -360 -219 -796z"/>
<path d="M1527 4362 c-33 -36 -20 -70 114 -311 131 -235 164 -281 198 -281 29
0 71 39 71 66 0 23 -255 490 -288 527 -20 23 -74 22 -95 -1z"/>
<path d="M3498 4363 c-33 -37 -288 -504 -288 -527 0 -27 42 -66 71 -66 34 0
67 46 198 281 136 244 149 280 113 312 -24 22 -75 22 -94 0z"/>
<path d="M880 4240 c-44 -44 -32 -63 153 -248 184 -184 203 -196 247 -152 44
44 32 63 -153 248 -184 184 -203 196 -247 152z"/>
<path d="M3992 4087 c-184 -184 -196 -203 -152 -247 44 -44 63 -32 248 153
184 184 196 203 152 247 -44 44 -63 32 -248 -153z"/>
<path d="M1377 3742 c-34 -38 -22 -73 51 -145 74 -73 105 -84 142 -47 37 37
26 69 -48 143 -73 73 -112 86 -145 49z"/>
<path d="M3597 3692 c-73 -74 -84 -105 -47 -142 37 -37 69 -26 143 48 73 73
86 112 49 145 -38 34 -73 22 -145 -51z"/>
<path d="M773 3608 c-41 -20 -48 -86 -12 -115 42 -33 502 -283 522 -283 29 0
67 39 67 68 0 11 -10 32 -22 45 -23 24 -475 280 -513 290 -11 3 -30 1 -42 -5z"/>
<path d="M4285 3606 c-71 -31 -482 -268 -497 -287 -10 -12 -18 -31 -18 -43 0
-28 39 -66 68 -66 20 0 392 201 495 267 44 28 58 57 45 94 -7 20 -46 51 -61
49 -1 -1 -15 -7 -32 -14z"/>
<path d="M1014 1772 c-133 -75 -249 -143 -258 -151 -40 -34 -6 -113 48 -113
25 0 484 250 524 285 44 41 15 118 -45 116 -17 0 -127 -56 -269 -137z"/>
<path d="M3790 1890 c-31 -31 -26 -75 13 -103 66 -49 489 -279 513 -279 36 -1
64 29 64 68 0 26 -7 38 -32 57 -66 49 -489 277 -513 277 -14 0 -34 -9 -45 -20z"/>
<path d="M1427 1522 c-73 -73 -86 -112 -49 -145 38 -34 73 -22 145 51 73 74
84 105 47 142 -37 37 -69 26 -143 -48z"/>
<path d="M3550 1570 c-37 -37 -26 -69 48 -143 74 -74 112 -86 147 -47 33 37
23 67 -51 141 -75 75 -107 86 -144 49z"/>
<path d="M1797 1328 c-34 -32 -289 -494 -289 -524 -1 -55 78 -87 114 -46 33
36 288 502 288 525 0 29 -39 67 -68 67 -11 0 -32 -10 -45 -22z"/>
<path d="M3232 1327 c-12 -13 -22 -33 -22 -45 0 -22 257 -490 288 -524 36 -41
115 -9 115 46 0 30 -256 492 -290 524 -31 28 -64 28 -91 -1z"/>
<path d="M1032 1127 c-184 -184 -196 -203 -152 -247 44 -44 63 -32 248 153
184 184 196 203 152 247 -44 44 -63 32 -248 -153z"/>
<path d="M3840 1280 c-44 -44 -32 -63 153 -248 184 -184 203 -196 247 -152 44
44 32 63 -153 248 -184 184 -203 196 -247 152z"/>
</g>
</svg>
